<?xml version="1.0" standalone="no"?>
<!DOCTYPE svg PUBLIC "-//W3C//DTD SVG 20010904//EN"
 "http://www.w3.org/TR/2001/REC-SVG-20010904/DTD/svg10.dtd">
<svg version="1.0" xmlns="http://www.w3.org/2000/svg"
 width="422.000000pt" height="388.000000pt" viewBox="0 0 422.000000 388.000000"
 preserveAspectRatio="xMidYMid meet">

<g transform="translate(0.000000,388.000000) scale(0.100000,-0.100000)"
fill="#000000" stroke="none">
<path d="M2407 3868 c-3 -7 -12 -30 -21 -50 l-16 -38 28 0 c22 0 36 10 60 44
18 24 32 47 32 50 0 12 -78 6 -83 -6z"/>
<path d="M2800 3738 c-36 -19 -51 -35 -75 -83 -28 -55 -30 -68 -30 -166 0 -98
2 -110 30 -164 43 -84 81 -108 165 -103 92 5 145 51 165 146 6 31 5 33 -40 52
-26 11 -51 18 -55 15 -5 -3 -11 -19 -15 -35 -16 -71 -99 -77 -122 -10 -17 49
-16 154 1 195 20 47 56 64 90 42 13 -9 28 -26 31 -38 7 -22 28 -22 88 0 l27
11 -15 37 c-36 86 -68 112 -147 119 -43 4 -62 1 -98 -18z"/>
<path d="M460 3490 l0 -260 60 0 60 0 0 105 0 104 73 3 72 3 0 50 0 50 -72 3
-73 3 0 39 0 39 83 3 82 3 3 58 3 57 -146 0 -145 0 0 -260z"/>
<path d="M901 3718 c-5 -18 -35 -127 -66 -243 -31 -115 -58 -218 -61 -227 -5
-16 2 -18 55 -18 l60 0 11 40 11 40 64 0 c62 0 65 -1 71 -27 3 -16 7 -34 10
-40 4 -14 124 -19 124 -6 0 11 -131 497 -136 505 -3 4 -34 8 -69 8 -63 0 -64
0 -74 -32z m103 -250 l7 -38 -36 0 c-39 0 -41 5 -24 80 16 74 21 79 34 35 7
-22 15 -57 19 -77z"/>
<path d="M1260 3490 l0 -260 60 0 60 0 0 99 c0 55 4 102 9 105 18 12 42 -23
74 -109 l34 -90 67 -3 c40 -2 66 1 66 7 0 24 -63 168 -83 189 l-21 22 27 28
c31 33 57 91 57 129 0 15 -9 47 -20 71 -28 61 -60 72 -210 72 l-120 0 0 -260z
m204 144 c19 -7 22 -64 4 -82 -7 -7 -29 -12 -50 -12 l-38 0 0 50 0 50 34 0
c19 0 41 -3 50 -6z"/>
<path d="M1710 3490 l0 -260 50 0 50 0 2 163 3 162 28 -145 c38 -197 30 -182
85 -178 l46 3 27 153 c15 85 30 156 33 160 3 3 6 -67 6 -156 l0 -162 50 0 50
0 0 260 0 260 -79 0 -79 0 -28 -145 c-15 -80 -29 -143 -31 -141 -4 3 -53 261
-53 278 0 4 -36 8 -80 8 l-80 0 0 -260z"/>
<path d="M2287 3501 c-37 -136 -67 -253 -67 -260 0 -7 21 -11 59 -11 l59 0 7
40 7 40 68 0 68 0 7 -40 7 -40 64 0 c46 0 62 3 59 13 -2 6 -31 116 -65 242
-34 127 -63 238 -66 248 -4 14 -17 17 -73 17 l-67 0 -67 -249z m157 -3 l14
-68 -38 0 -38 0 14 63 c25 110 26 110 48 5z"/>
<path d="M3160 3490 l0 -260 60 0 60 0 0 260 0 260 -60 0 -60 0 0 -260z"/>
<path d="M3434 3490 l-70 -260 62 0 62 0 7 40 7 40 68 0 68 0 7 -40 7 -40 65
0 c48 0 64 3 60 13 -4 11 -99 358 -127 465 l-11 42 -68 0 -67 0 -70 -260z
m165 -32 c1 -25 -2 -28 -33 -28 l-34 0 14 63 c22 94 26 98 40 42 6 -27 13 -62
13 -77z"/>
<path d="M1995 3025 c-194 -43 -403 -166 -543 -320 -115 -126 -218 -310 -267
-481 -31 -105 -31 -124 -5 -124 24 0 32 15 55 105 10 39 35 108 55 155 55 128
176 310 205 310 12 0 127 -73 158 -101 5 -3 -3 -25 -17 -48 -58 -91 -117 -258
-132 -369 -7 -53 -6 -54 17 -50 20 2 26 12 37 63 35 156 96 311 141 358 16 16
20 16 89 -15 40 -17 72 -38 72 -45 0 -8 -7 -27 -15 -43 -8 -16 -25 -69 -36
-117 -42 -177 -1 -377 106 -507 l47 -58 -66 -146 c-36 -81 -75 -169 -87 -196
l-22 -50 -17 22 c-12 14 -29 22 -49 22 -40 0 -39 -8 4 -50 19 -19 35 -38 35
-44 0 -22 -155 -356 -165 -356 -18 0 -130 121 -190 205 -32 44 -76 117 -98
163 -33 68 -43 82 -63 82 -13 0 -24 -3 -24 -6 0 -15 94 -196 130 -252 57 -86
216 -244 302 -299 178 -115 340 -165 538 -165 279 -1 499 96 710 311 106 108
178 211 234 335 32 72 32 76 2 76 -20 0 -31 -14 -70 -94 -52 -107 -136 -223
-224 -310 l-60 -59 -15 29 c-28 56 -147 330 -147 339 0 5 19 29 42 52 l42 43
-34 0 c-20 0 -42 -8 -55 -20 l-22 -21 -67 152 c-37 83 -76 170 -86 194 l-18
43 40 53 c89 118 120 219 121 384 1 107 -11 162 -57 267 -6 14 1 19 36 28 23
7 60 21 81 31 21 11 42 17 48 14 32 -20 122 -262 134 -362 6 -48 9 -53 32 -53
25 0 25 1 19 53 -12 92 -47 205 -92 295 -24 48 -44 90 -44 94 0 4 19 17 43 29
23 12 61 36 85 52 26 19 46 27 50 21 4 -5 26 -34 48 -64 47 -62 125 -202 150
-270 9 -25 26 -81 39 -125 18 -68 25 -81 45 -83 21 -4 22 -1 16 37 -10 64 -65
219 -108 306 -148 297 -422 515 -731 580 -85 18 -299 18 -382 0z m411 -60
c113 -28 257 -95 336 -156 62 -49 128 -110 128 -120 0 -7 -59 -46 -127 -85
l-33 -18 -76 77 c-85 86 -165 138 -266 173 -49 16 -78 34 -106 63 -53 56 -91
56 -142 1 -27 -29 -55 -46 -101 -62 -111 -37 -231 -114 -286 -183 -15 -19 -36
-35 -47 -35 -19 0 -146 88 -146 102 0 11 110 96 181 140 67 41 202 93 294 113
104 23 278 19 391 -10z m-326 -187 c0 -60 75 -125 130 -113 38 8 78 46 85 82
12 53 12 53 47 43 74 -21 180 -86 243 -148 36 -35 65 -68 65 -73 0 -10 -46
-30 -111 -48 l-46 -13 -57 56 c-32 30 -78 65 -103 77 -41 20 -51 21 -90 11
-56 -16 -72 -15 -107 3 -28 15 -33 14 -80 -10 -28 -13 -75 -47 -103 -75 -29
-27 -56 -50 -60 -49 -23 2 -137 56 -140 66 -10 30 138 144 246 189 70 29 81
29 81 2z m249 -193 c29 -16 64 -43 78 -59 l25 -30 -24 -9 c-63 -24 -353 -17
-430 12 -20 7 -19 9 13 40 19 18 57 44 84 57 72 34 178 30 254 -11z m-309
-150 c77 -14 368 -14 422 0 24 6 29 3 47 -33 48 -94 58 -275 24 -402 -21 -77
-91 -200 -113 -200 -4 0 -29 50 -55 110 -27 61 -51 110 -54 110 -3 -1 -26 -43
-50 -95 -25 -52 -47 -95 -51 -95 -3 0 -26 43 -49 95 -24 52 -47 93 -51 90 -4
-2 -26 -48 -50 -102 -23 -54 -46 -102 -51 -108 -13 -14 -54 37 -88 110 -67
142 -71 318 -10 479 23 63 19 62 129 41z m159 -717 c1 -5 -11 -8 -25 -8 -30 0
-124 39 -124 51 0 5 14 40 31 77 l31 67 44 -90 c24 -49 43 -93 43 -97z m170
50 c1 -10 -12 -24 -28 -32 -38 -20 -110 -36 -116 -26 -5 8 59 155 78 179 9 11
17 1 38 -45 15 -33 28 -67 28 -76z m-158 -113 c70 0 95 4 137 24 29 14 53 23
55 20 2 -2 41 -89 86 -192 81 -182 83 -189 65 -208 -25 -28 -112 -76 -181
-100 -68 -23 -221 -28 -293 -9 -62 16 -159 64 -199 98 l-33 28 86 195 87 195
52 -25 c44 -22 66 -26 138 -26z m-338 -424 c222 -152 475 -150 685 6 18 14 36
23 39 20 9 -10 153 -341 153 -354 0 -19 -123 -87 -235 -131 -164 -64 -370 -74
-529 -27 -127 37 -316 133 -316 160 0 15 150 355 157 355 2 0 23 -13 46 -29z"/>
<path d="M2125 2376 c-103 -46 -140 -169 -81 -270 85 -145 290 -96 320 76 24
133 -119 248 -239 194z m138 -61 c33 -23 48 -53 49 -99 2 -124 -112 -185 -202
-110 -51 43 -59 131 -18 187 31 42 126 54 171 22z"/>
<path d="M2145 2240 c-23 -26 -11 -69 25 -87 29 -14 56 -2 72 32 26 57 -55
102 -97 55z"/>
<path d="M22 1743 l3 -278 132 -3 133 -3 0 41 0 40 -90 0 -90 0 0 240 0 240
-45 0 -45 0 2 -277z"/>
<path d="M362 1743 l3 -278 35 0 35 0 3 278 2 277 -40 0 -40 0 2 -277z"/>
<path d="M480 2011 c0 -15 201 -524 213 -539 6 -7 19 -12 30 -10 15 2 42 61
128 278 60 151 109 276 109 277 0 2 -20 3 -44 3 l-43 0 -73 -192 c-40 -106
-77 -197 -80 -201 -7 -8 -33 53 -119 283 l-39 105 -41 3 c-23 2 -41 -1 -41 -7z"/>
<path d="M992 1743 l3 -278 40 0 40 0 3 118 c1 64 6 117 10 117 4 -1 41 -49
82 -107 41 -58 81 -112 88 -120 14 -13 102 -19 102 -6 0 4 -31 48 -70 99 -38
50 -70 96 -70 102 0 5 14 12 32 16 39 8 104 74 113 116 13 60 -4 121 -44 161
-47 47 -91 59 -224 59 l-107 0 2 -277z m230 187 c21 -6 42 -19 48 -30 11 -21
13 -89 4 -115 -10 -25 -56 -44 -128 -51 l-66 -7 0 107 0 106 53 0 c28 0 69 -5
89 -10z"/>
<path d="M1450 1740 l0 -280 145 0 145 0 0 40 0 40 -105 0 -106 0 3 83 3 82
103 3 102 3 0 34 0 35 -105 0 -106 0 3 83 3 82 103 3 102 3 0 34 0 35 -145 0
-145 0 0 -280z"/>
<path d="M3458 2012 l-38 -3 -2 -202 -3 -201 -132 202 -132 202 -46 0 -45 0 2
-277 3 -278 40 0 40 0 0 197 c0 109 3 199 8 200 4 2 67 -87 140 -197 l133
-200 40 0 39 0 3 274 c1 151 -1 277 -5 280 -5 4 -25 5 -45 3z"/>
<path d="M2662 1733 l3 -278 145 0 145 0 3 37 3 37 -103 3 -103 3 -3 78 -3 77
73 1 c140 2 133 -1 136 42 l3 37 -105 0 -106 0 0 80 0 79 103 3 102 3 3 38 3
37 -151 0 -150 0 2 -277z"/>
<path d="M3562 1973 c3 -38 3 -38 50 -41 l48 -3 2 -237 3 -237 43 -3 42 -3 0
240 0 240 53 3 52 3 3 38 3 37 -151 0 -151 0 3 -37z"/>
<path d="M3912 1733 l3 -278 145 0 145 0 3 38 3 37 -105 0 -106 0 0 80 0 79
103 3 102 3 3 38 3 37 -105 0 -106 0 0 80 0 79 103 3 102 3 3 38 3 37 -151 0
-150 0 2 -277z"/>
<path d="M947 1332 c-155 -55 -158 -57 -152 -82 4 -14 8 -26 10 -28 1 -2 27 6
56 18 80 30 82 29 107 -47 12 -37 20 -68 19 -69 -2 -2 -32 -14 -67 -26 -57
-21 -65 -27 -62 -48 1 -13 4 -26 7 -28 2 -3 75 20 162 49 156 54 175 65 154
98 -7 11 -19 10 -71 -7 -35 -12 -66 -20 -70 -17 -8 5 -44 134 -39 139 2 2 31
15 63 28 64 26 73 35 54 60 -12 14 -29 11 -171 -40z"/>
<path d="M3283 1213 c-111 -4 -113 -4 -119 -29 -5 -21 5 -36 67 -102 41 -42
99 -103 129 -134 29 -32 57 -58 61 -58 4 0 9 10 12 22 5 16 -4 34 -29 65 l-36
44 23 67 24 67 50 3 c49 3 75 20 75 49 0 10 -18 12 -72 11 -40 -1 -124 -4
-185 -5z m77 -56 c0 -2 -7 -25 -16 -51 l-16 -48 -44 43 c-24 24 -44 47 -44 51
0 4 27 8 60 8 33 0 60 -1 60 -3z"/>
<path d="M1085 1001 c-123 -76 -129 -231 -13 -331 29 -24 49 -32 90 -36 64 -6
108 13 152 69 25 31 31 49 34 100 4 78 -23 137 -86 184 -36 27 -52 33 -95 33
-33 0 -63 -7 -82 -19z m169 -76 c25 -24 37 -47 41 -78 24 -158 -183 -221 -240
-73 -23 60 -14 109 30 153 29 29 40 33 84 33 44 0 55 -4 85 -35z"/>
<path d="M3060 970 c-6 -11 -8 -24 -5 -29 6 -11 260 -192 271 -195 3 0 13 9
21 20 15 24 21 18 -172 154 -109 76 -103 73 -115 50z"/>
<path d="M2941 809 c-59 -65 -62 -72 -48 -87 15 -15 19 -14 42 8 l26 24 107
-107 c85 -84 110 -105 120 -95 19 19 15 31 -29 73 -22 22 -68 71 -101 108
l-61 68 23 24 c19 20 21 27 10 40 -7 8 -15 15 -19 15 -4 0 -35 -32 -70 -71z"/>
<path d="M1340 608 c-83 -140 -89 -154 -74 -165 10 -7 20 -13 23 -13 3 0 37
53 74 116 38 64 71 114 73 112 2 -2 -8 -64 -21 -138 -14 -73 -25 -141 -25
-150 0 -40 32 -27 145 57 64 47 118 84 120 81 2 -2 -27 -53 -65 -113 -38 -61
-70 -115 -70 -121 0 -16 31 -27 43 -15 20 20 175 286 170 294 -2 4 -17 14 -32
22 -28 14 -30 13 -135 -66 -59 -45 -109 -79 -112 -76 -3 2 7 67 20 143 24 131
25 140 8 152 -50 38 -46 41 -142 -120z"/>
<path d="M2749 644 c-11 -13 -8 -45 15 -192 16 -98 32 -183 35 -189 10 -19 53
14 47 35 -2 10 -7 35 -10 57 -6 37 -4 42 26 61 18 11 45 28 59 37 25 17 27 16
68 -14 41 -29 43 -30 68 -14 14 9 21 20 17 25 -45 40 -284 210 -296 210 -9 0
-21 -7 -29 -16z m106 -96 c25 -17 45 -35 45 -40 0 -4 -17 -19 -37 -33 l-38
-25 -12 47 c-12 53 -15 83 -8 83 2 0 25 -14 50 -32z"/>
<path d="M1796 531 c-7 -11 -86 -319 -86 -334 0 -9 30 -23 88 -39 73 -21 88
-23 95 -11 15 25 0 39 -62 56 -59 17 -61 18 -55 45 14 58 24 74 40 68 9 -4 37
-11 61 -18 37 -9 47 -8 54 3 15 23 6 31 -60 51 -44 14 -61 23 -57 33 2 7 8 30
12 49 7 41 10 41 78 21 27 -8 52 -15 56 -15 12 0 19 39 9 46 -19 12 -169 51
-173 45z"/>
<path d="M2483 519 c-29 -11 -53 -25 -53 -31 0 -20 101 -327 109 -332 4 -3 16
1 26 8 17 12 17 15 1 61 -24 72 -22 83 24 101 79 32 106 129 51 185 -36 35
-81 38 -158 8z m123 -54 c22 -33 11 -71 -26 -90 -44 -23 -56 -19 -69 26 -7 23
-15 47 -18 55 -3 8 7 16 29 23 53 15 66 13 84 -14z"/>
<path d="M2140 465 c-116 -53 -155 -188 -83 -287 39 -54 85 -78 148 -78 61 0
109 24 149 74 41 50 48 142 17 204 -39 76 -156 120 -231 87z m123 -56 c47 -24
66 -60 67 -122 0 -54 -3 -62 -33 -92 -42 -42 -96 -54 -143 -32 -93 45 -100
197 -10 241 37 18 89 20 119 5z"/>
</g>
</svg>
